<mxfile host="app.diagrams.net" modified="2022-10-14T13:52:54.085Z" agent="5.0 (Windows NT 10.0; Win64; x64) AppleWebKit/537.36 (KHTML, like Gecko) Chrome/106.0.0.0 Safari/537.36" etag="4cB5rpe8W0wO_6SrSlWH" version="20.4.1" type="github">
  <diagram id="vnx01BLdU35tcmJjHunk" name="Страница 1">
    <mxGraphModel dx="2451" dy="951" grid="1" gridSize="10" guides="1" tooltips="1" connect="1" arrows="1" fold="1" page="1" pageScale="1" pageWidth="827" pageHeight="1169" math="0" shadow="0">
      <root>
        <mxCell id="0" />
        <mxCell id="1" parent="0" />
        <mxCell id="O8QS6B6w0gNLtdAk0vZ7-5" value="" style="edgeStyle=orthogonalEdgeStyle;rounded=0;orthogonalLoop=1;jettySize=auto;html=1;" edge="1" parent="1" source="O8QS6B6w0gNLtdAk0vZ7-1" target="O8QS6B6w0gNLtdAk0vZ7-4">
          <mxGeometry relative="1" as="geometry" />
        </mxCell>
        <mxCell id="O8QS6B6w0gNLtdAk0vZ7-9" value="" style="edgeStyle=orthogonalEdgeStyle;rounded=0;orthogonalLoop=1;jettySize=auto;html=1;" edge="1" parent="1" source="O8QS6B6w0gNLtdAk0vZ7-1" target="O8QS6B6w0gNLtdAk0vZ7-8">
          <mxGeometry relative="1" as="geometry" />
        </mxCell>
        <mxCell id="O8QS6B6w0gNLtdAk0vZ7-17" value="" style="edgeStyle=orthogonalEdgeStyle;rounded=0;orthogonalLoop=1;jettySize=auto;html=1;" edge="1" parent="1" source="O8QS6B6w0gNLtdAk0vZ7-1" target="O8QS6B6w0gNLtdAk0vZ7-16">
          <mxGeometry relative="1" as="geometry" />
        </mxCell>
        <mxCell id="O8QS6B6w0gNLtdAk0vZ7-1" value="Пользователь" style="shape=umlActor;verticalLabelPosition=bottom;verticalAlign=top;html=1;outlineConnect=0;" vertex="1" parent="1">
          <mxGeometry x="340" y="30" width="30" height="60" as="geometry" />
        </mxCell>
        <mxCell id="O8QS6B6w0gNLtdAk0vZ7-4" value="&lt;br&gt;Регистрация" style="ellipse;whiteSpace=wrap;html=1;verticalAlign=top;" vertex="1" parent="1">
          <mxGeometry x="-120" y="310" width="120" height="60" as="geometry" />
        </mxCell>
        <mxCell id="O8QS6B6w0gNLtdAk0vZ7-74" style="edgeStyle=orthogonalEdgeStyle;rounded=0;orthogonalLoop=1;jettySize=auto;html=1;dashed=1;startArrow=none;" edge="1" parent="1" source="O8QS6B6w0gNLtdAk0vZ7-75" target="O8QS6B6w0gNLtdAk0vZ7-4">
          <mxGeometry relative="1" as="geometry" />
        </mxCell>
        <mxCell id="O8QS6B6w0gNLtdAk0vZ7-6" value="&lt;br&gt;Авторизация" style="ellipse;whiteSpace=wrap;html=1;verticalAlign=top;" vertex="1" parent="1">
          <mxGeometry x="-121" y="455" width="120" height="60" as="geometry" />
        </mxCell>
        <mxCell id="O8QS6B6w0gNLtdAk0vZ7-120" style="edgeStyle=orthogonalEdgeStyle;rounded=0;orthogonalLoop=1;jettySize=auto;html=1;dashed=1;startArrow=none;" edge="1" parent="1" source="O8QS6B6w0gNLtdAk0vZ7-121" target="O8QS6B6w0gNLtdAk0vZ7-6">
          <mxGeometry relative="1" as="geometry">
            <Array as="points">
              <mxPoint x="80" y="340" />
              <mxPoint x="80" y="485" />
            </Array>
          </mxGeometry>
        </mxCell>
        <mxCell id="O8QS6B6w0gNLtdAk0vZ7-8" value="&lt;br&gt;Создание проекта" style="ellipse;whiteSpace=wrap;html=1;verticalAlign=top;" vertex="1" parent="1">
          <mxGeometry x="170" y="310" width="120" height="60" as="geometry" />
        </mxCell>
        <mxCell id="O8QS6B6w0gNLtdAk0vZ7-80" style="edgeStyle=orthogonalEdgeStyle;rounded=0;orthogonalLoop=1;jettySize=auto;html=1;dashed=1;startArrow=none;" edge="1" parent="1" source="O8QS6B6w0gNLtdAk0vZ7-81" target="O8QS6B6w0gNLtdAk0vZ7-8">
          <mxGeometry relative="1" as="geometry" />
        </mxCell>
        <mxCell id="O8QS6B6w0gNLtdAk0vZ7-10" value="&lt;br&gt;Редактирование названия проекта" style="ellipse;whiteSpace=wrap;html=1;verticalAlign=top;" vertex="1" parent="1">
          <mxGeometry x="170" y="450" width="120" height="70" as="geometry" />
        </mxCell>
        <mxCell id="O8QS6B6w0gNLtdAk0vZ7-29" style="edgeStyle=orthogonalEdgeStyle;rounded=0;orthogonalLoop=1;jettySize=auto;html=1;dashed=1;startArrow=none;" edge="1" parent="1" source="O8QS6B6w0gNLtdAk0vZ7-30" target="O8QS6B6w0gNLtdAk0vZ7-8">
          <mxGeometry relative="1" as="geometry">
            <mxPoint x="290" y="340" as="targetPoint" />
          </mxGeometry>
        </mxCell>
        <mxCell id="O8QS6B6w0gNLtdAk0vZ7-16" value="&lt;br&gt;Открытие проекта" style="ellipse;whiteSpace=wrap;html=1;verticalAlign=top;" vertex="1" parent="1">
          <mxGeometry x="455" y="310" width="120" height="60" as="geometry" />
        </mxCell>
        <mxCell id="O8QS6B6w0gNLtdAk0vZ7-21" style="edgeStyle=orthogonalEdgeStyle;rounded=0;orthogonalLoop=1;jettySize=auto;html=1;dashed=1;startArrow=none;" edge="1" parent="1" source="O8QS6B6w0gNLtdAk0vZ7-22" target="O8QS6B6w0gNLtdAk0vZ7-16">
          <mxGeometry relative="1" as="geometry" />
        </mxCell>
        <mxCell id="O8QS6B6w0gNLtdAk0vZ7-19" value="Добавление списка" style="ellipse;whiteSpace=wrap;html=1;" vertex="1" parent="1">
          <mxGeometry x="445" y="450" width="140" height="70" as="geometry" />
        </mxCell>
        <mxCell id="O8QS6B6w0gNLtdAk0vZ7-22" value="&amp;lt;&amp;lt;include&amp;gt;&amp;gt;" style="text;html=1;align=center;verticalAlign=middle;resizable=0;points=[];autosize=1;strokeColor=none;fillColor=none;" vertex="1" parent="1">
          <mxGeometry x="470" y="400" width="90" height="30" as="geometry" />
        </mxCell>
        <mxCell id="O8QS6B6w0gNLtdAk0vZ7-23" value="" style="edgeStyle=orthogonalEdgeStyle;rounded=0;orthogonalLoop=1;jettySize=auto;html=1;dashed=1;endArrow=none;" edge="1" parent="1" source="O8QS6B6w0gNLtdAk0vZ7-19" target="O8QS6B6w0gNLtdAk0vZ7-22">
          <mxGeometry relative="1" as="geometry">
            <mxPoint x="515" y="450" as="sourcePoint" />
            <mxPoint x="515" y="370" as="targetPoint" />
          </mxGeometry>
        </mxCell>
        <mxCell id="O8QS6B6w0gNLtdAk0vZ7-30" value="&amp;lt;&amp;lt;include&amp;gt;&amp;gt;" style="text;html=1;align=center;verticalAlign=middle;resizable=0;points=[];autosize=1;strokeColor=none;fillColor=none;spacing=0;" vertex="1" parent="1">
          <mxGeometry x="340" y="330" width="90" height="20" as="geometry" />
        </mxCell>
        <mxCell id="O8QS6B6w0gNLtdAk0vZ7-32" value="" style="edgeStyle=orthogonalEdgeStyle;rounded=0;orthogonalLoop=1;jettySize=auto;html=1;dashed=1;endArrow=none;" edge="1" parent="1" source="O8QS6B6w0gNLtdAk0vZ7-16" target="O8QS6B6w0gNLtdAk0vZ7-30">
          <mxGeometry relative="1" as="geometry">
            <mxPoint x="415" y="340" as="sourcePoint" />
            <mxPoint x="300" y="340" as="targetPoint" />
          </mxGeometry>
        </mxCell>
        <mxCell id="O8QS6B6w0gNLtdAk0vZ7-49" style="edgeStyle=orthogonalEdgeStyle;rounded=0;orthogonalLoop=1;jettySize=auto;html=1;dashed=1;startArrow=none;" edge="1" parent="1" source="O8QS6B6w0gNLtdAk0vZ7-50" target="O8QS6B6w0gNLtdAk0vZ7-19">
          <mxGeometry relative="1" as="geometry" />
        </mxCell>
        <mxCell id="O8QS6B6w0gNLtdAk0vZ7-38" value="Добавление карточки" style="ellipse;whiteSpace=wrap;html=1;" vertex="1" parent="1">
          <mxGeometry x="903" y="450" width="140" height="70" as="geometry" />
        </mxCell>
        <mxCell id="O8QS6B6w0gNLtdAk0vZ7-86" style="edgeStyle=orthogonalEdgeStyle;rounded=0;orthogonalLoop=1;jettySize=auto;html=1;dashed=1;startArrow=none;" edge="1" parent="1" source="O8QS6B6w0gNLtdAk0vZ7-91" target="O8QS6B6w0gNLtdAk0vZ7-19">
          <mxGeometry relative="1" as="geometry">
            <Array as="points">
              <mxPoint x="620" y="560" />
              <mxPoint x="550" y="560" />
            </Array>
          </mxGeometry>
        </mxCell>
        <mxCell id="O8QS6B6w0gNLtdAk0vZ7-39" value="Удаление списка" style="ellipse;whiteSpace=wrap;html=1;" vertex="1" parent="1">
          <mxGeometry x="550" y="625" width="140" height="70" as="geometry" />
        </mxCell>
        <mxCell id="O8QS6B6w0gNLtdAk0vZ7-85" style="edgeStyle=orthogonalEdgeStyle;rounded=0;orthogonalLoop=1;jettySize=auto;html=1;dashed=1;startArrow=none;" edge="1" parent="1" source="O8QS6B6w0gNLtdAk0vZ7-87" target="O8QS6B6w0gNLtdAk0vZ7-19">
          <mxGeometry relative="1" as="geometry">
            <Array as="points">
              <mxPoint x="414" y="560" />
              <mxPoint x="480" y="560" />
            </Array>
          </mxGeometry>
        </mxCell>
        <mxCell id="O8QS6B6w0gNLtdAk0vZ7-42" value="Редактирование названия списка" style="ellipse;whiteSpace=wrap;html=1;" vertex="1" parent="1">
          <mxGeometry x="342" y="625" width="140" height="70" as="geometry" />
        </mxCell>
        <mxCell id="O8QS6B6w0gNLtdAk0vZ7-48" value="" style="edgeStyle=orthogonalEdgeStyle;rounded=0;orthogonalLoop=1;jettySize=auto;html=1;exitX=0.5;exitY=0.5;exitDx=0;exitDy=0;exitPerimeter=0;" edge="1" parent="1" source="O8QS6B6w0gNLtdAk0vZ7-1" target="O8QS6B6w0gNLtdAk0vZ7-38">
          <mxGeometry relative="1" as="geometry">
            <mxPoint x="380" y="70" as="sourcePoint" />
            <mxPoint x="525" y="320" as="targetPoint" />
          </mxGeometry>
        </mxCell>
        <mxCell id="O8QS6B6w0gNLtdAk0vZ7-51" value="" style="edgeStyle=orthogonalEdgeStyle;rounded=0;orthogonalLoop=1;jettySize=auto;html=1;dashed=1;endArrow=none;startArrow=none;" edge="1" parent="1" source="O8QS6B6w0gNLtdAk0vZ7-50">
          <mxGeometry relative="1" as="geometry">
            <mxPoint x="750" y="485" as="sourcePoint" />
            <mxPoint x="713" y="485.0000000000002" as="targetPoint" />
            <Array as="points">
              <mxPoint x="755" y="485" />
            </Array>
          </mxGeometry>
        </mxCell>
        <mxCell id="O8QS6B6w0gNLtdAk0vZ7-52" value="Установка срока выполнения" style="ellipse;whiteSpace=wrap;html=1;" vertex="1" parent="1">
          <mxGeometry x="748" y="744" width="140" height="70" as="geometry" />
        </mxCell>
        <mxCell id="O8QS6B6w0gNLtdAk0vZ7-63" value="Отметить как выполненное" style="ellipse;whiteSpace=wrap;html=1;" vertex="1" parent="1">
          <mxGeometry x="903" y="850" width="140" height="70" as="geometry" />
        </mxCell>
        <mxCell id="O8QS6B6w0gNLtdAk0vZ7-93" style="edgeStyle=orthogonalEdgeStyle;rounded=0;orthogonalLoop=1;jettySize=auto;html=1;dashed=1;startArrow=none;" edge="1" parent="1" source="O8QS6B6w0gNLtdAk0vZ7-94" target="O8QS6B6w0gNLtdAk0vZ7-38">
          <mxGeometry relative="1" as="geometry" />
        </mxCell>
        <mxCell id="O8QS6B6w0gNLtdAk0vZ7-66" value="Редактирование карточки" style="ellipse;whiteSpace=wrap;html=1;" vertex="1" parent="1">
          <mxGeometry x="903" y="599" width="140" height="70" as="geometry" />
        </mxCell>
        <mxCell id="O8QS6B6w0gNLtdAk0vZ7-75" value="&amp;lt;&amp;lt;include&amp;gt;&amp;gt;" style="text;html=1;align=center;verticalAlign=middle;resizable=0;points=[];autosize=1;strokeColor=none;fillColor=none;" vertex="1" parent="1">
          <mxGeometry x="-106" y="403" width="90" height="30" as="geometry" />
        </mxCell>
        <mxCell id="O8QS6B6w0gNLtdAk0vZ7-76" value="" style="edgeStyle=orthogonalEdgeStyle;rounded=0;orthogonalLoop=1;jettySize=auto;html=1;dashed=1;endArrow=none;" edge="1" parent="1" source="O8QS6B6w0gNLtdAk0vZ7-6" target="O8QS6B6w0gNLtdAk0vZ7-75">
          <mxGeometry relative="1" as="geometry">
            <mxPoint x="-61" y="455" as="sourcePoint" />
            <mxPoint x="-61" y="370" as="targetPoint" />
          </mxGeometry>
        </mxCell>
        <mxCell id="O8QS6B6w0gNLtdAk0vZ7-81" value="&amp;lt;&amp;lt;include&amp;gt;&amp;gt;" style="text;html=1;align=center;verticalAlign=middle;resizable=0;points=[];autosize=1;strokeColor=none;fillColor=none;" vertex="1" parent="1">
          <mxGeometry x="185" y="403" width="90" height="30" as="geometry" />
        </mxCell>
        <mxCell id="O8QS6B6w0gNLtdAk0vZ7-82" value="" style="edgeStyle=orthogonalEdgeStyle;rounded=0;orthogonalLoop=1;jettySize=auto;html=1;dashed=1;endArrow=none;" edge="1" parent="1" source="O8QS6B6w0gNLtdAk0vZ7-10" target="O8QS6B6w0gNLtdAk0vZ7-81">
          <mxGeometry relative="1" as="geometry">
            <mxPoint x="230" y="450" as="sourcePoint" />
            <mxPoint x="230" y="370" as="targetPoint" />
          </mxGeometry>
        </mxCell>
        <mxCell id="O8QS6B6w0gNLtdAk0vZ7-87" value="&amp;lt;&amp;lt;include&amp;gt;&amp;gt;" style="text;html=1;align=center;verticalAlign=middle;resizable=0;points=[];autosize=1;strokeColor=none;fillColor=none;" vertex="1" parent="1">
          <mxGeometry x="369" y="577" width="90" height="30" as="geometry" />
        </mxCell>
        <mxCell id="O8QS6B6w0gNLtdAk0vZ7-90" value="" style="edgeStyle=orthogonalEdgeStyle;rounded=0;orthogonalLoop=1;jettySize=auto;html=1;entryX=0.5;entryY=1;entryDx=0;entryDy=0;dashed=1;endArrow=none;" edge="1" parent="1" source="O8QS6B6w0gNLtdAk0vZ7-42" target="O8QS6B6w0gNLtdAk0vZ7-87">
          <mxGeometry relative="1" as="geometry">
            <mxPoint x="414" y="625" as="sourcePoint" />
            <mxPoint x="515" y="520" as="targetPoint" />
          </mxGeometry>
        </mxCell>
        <mxCell id="O8QS6B6w0gNLtdAk0vZ7-91" value="&amp;lt;&amp;lt;include&amp;gt;&amp;gt;" style="text;html=1;align=center;verticalAlign=middle;resizable=0;points=[];autosize=1;strokeColor=none;fillColor=none;" vertex="1" parent="1">
          <mxGeometry x="575" y="576" width="90" height="30" as="geometry" />
        </mxCell>
        <mxCell id="O8QS6B6w0gNLtdAk0vZ7-92" value="" style="edgeStyle=orthogonalEdgeStyle;rounded=0;orthogonalLoop=1;jettySize=auto;html=1;entryX=0.5;entryY=1;entryDx=0;entryDy=0;dashed=1;endArrow=none;" edge="1" parent="1" source="O8QS6B6w0gNLtdAk0vZ7-39" target="O8QS6B6w0gNLtdAk0vZ7-91">
          <mxGeometry relative="1" as="geometry">
            <mxPoint x="620" y="625" as="sourcePoint" />
            <mxPoint x="515" y="520" as="targetPoint" />
          </mxGeometry>
        </mxCell>
        <mxCell id="O8QS6B6w0gNLtdAk0vZ7-94" value="&amp;lt;&amp;lt;include&amp;gt;&amp;gt;" style="text;html=1;align=center;verticalAlign=middle;resizable=0;points=[];autosize=1;strokeColor=none;fillColor=none;" vertex="1" parent="1">
          <mxGeometry x="928" y="553" width="90" height="30" as="geometry" />
        </mxCell>
        <mxCell id="O8QS6B6w0gNLtdAk0vZ7-96" value="" style="edgeStyle=orthogonalEdgeStyle;rounded=0;orthogonalLoop=1;jettySize=auto;html=1;dashed=1;endArrow=none;" edge="1" parent="1" source="O8QS6B6w0gNLtdAk0vZ7-66" target="O8QS6B6w0gNLtdAk0vZ7-94">
          <mxGeometry relative="1" as="geometry">
            <mxPoint x="973" y="599" as="sourcePoint" />
            <mxPoint x="973" y="520" as="targetPoint" />
          </mxGeometry>
        </mxCell>
        <mxCell id="O8QS6B6w0gNLtdAk0vZ7-98" value="" style="endArrow=block;endSize=16;endFill=0;html=1;rounded=0;exitX=0.5;exitY=0;exitDx=0;exitDy=0;" edge="1" parent="1" source="O8QS6B6w0gNLtdAk0vZ7-52" target="O8QS6B6w0gNLtdAk0vZ7-66">
          <mxGeometry x="-0.1176" y="39" width="160" relative="1" as="geometry">
            <mxPoint x="763" y="700" as="sourcePoint" />
            <mxPoint x="904.2199999999998" y="664.1000000000001" as="targetPoint" />
            <Array as="points" />
            <mxPoint as="offset" />
          </mxGeometry>
        </mxCell>
        <mxCell id="O8QS6B6w0gNLtdAk0vZ7-99" value="" style="endArrow=block;endSize=16;endFill=0;html=1;rounded=0;exitX=0.5;exitY=0;exitDx=0;exitDy=0;" edge="1" parent="1" source="O8QS6B6w0gNLtdAk0vZ7-63" target="O8QS6B6w0gNLtdAk0vZ7-66">
          <mxGeometry x="-0.1176" y="39" width="160" relative="1" as="geometry">
            <mxPoint x="816" y="760.0000000000001" as="sourcePoint" />
            <mxPoint x="973" y="660" as="targetPoint" />
            <Array as="points" />
            <mxPoint as="offset" />
          </mxGeometry>
        </mxCell>
        <mxCell id="O8QS6B6w0gNLtdAk0vZ7-106" style="edgeStyle=orthogonalEdgeStyle;rounded=0;orthogonalLoop=1;jettySize=auto;html=1;entryX=1;entryY=0.5;entryDx=0;entryDy=0;dashed=1;exitX=0.5;exitY=1;exitDx=0;exitDy=0;" edge="1" parent="1" source="O8QS6B6w0gNLtdAk0vZ7-100" target="O8QS6B6w0gNLtdAk0vZ7-63">
          <mxGeometry relative="1" as="geometry">
            <Array as="points">
              <mxPoint x="1140" y="885" />
            </Array>
          </mxGeometry>
        </mxCell>
        <mxCell id="O8QS6B6w0gNLtdAk0vZ7-100" value="Вернуть в выполнение" style="ellipse;whiteSpace=wrap;html=1;" vertex="1" parent="1">
          <mxGeometry x="1070" y="748" width="140" height="70" as="geometry" />
        </mxCell>
        <mxCell id="O8QS6B6w0gNLtdAk0vZ7-103" value="&amp;lt;&amp;lt;include&amp;gt;&amp;gt;" style="text;html=1;align=center;verticalAlign=middle;resizable=0;points=[];autosize=1;strokeColor=none;fillColor=none;" vertex="1" parent="1">
          <mxGeometry x="1095" y="840" width="90" height="30" as="geometry" />
        </mxCell>
        <mxCell id="O8QS6B6w0gNLtdAk0vZ7-105" value="" style="endArrow=block;endSize=16;endFill=0;html=1;rounded=0;exitX=0.5;exitY=0;exitDx=0;exitDy=0;entryX=1;entryY=1;entryDx=0;entryDy=0;" edge="1" parent="1" source="O8QS6B6w0gNLtdAk0vZ7-100" target="O8QS6B6w0gNLtdAk0vZ7-66">
          <mxGeometry x="-0.1176" y="39" width="160" relative="1" as="geometry">
            <mxPoint x="983" y="830" as="sourcePoint" />
            <mxPoint x="983" y="679" as="targetPoint" />
            <Array as="points" />
            <mxPoint as="offset" />
          </mxGeometry>
        </mxCell>
        <mxCell id="O8QS6B6w0gNLtdAk0vZ7-110" value="Редактирование описания карточки" style="ellipse;whiteSpace=wrap;html=1;" vertex="1" parent="1">
          <mxGeometry x="1188" y="599" width="140" height="70" as="geometry" />
        </mxCell>
        <mxCell id="O8QS6B6w0gNLtdAk0vZ7-112" value="" style="endArrow=block;endSize=16;endFill=0;html=1;rounded=0;exitX=0;exitY=0.5;exitDx=0;exitDy=0;entryX=1;entryY=0.5;entryDx=0;entryDy=0;" edge="1" parent="1" source="O8QS6B6w0gNLtdAk0vZ7-110" target="O8QS6B6w0gNLtdAk0vZ7-66">
          <mxGeometry x="-0.1176" y="39" width="160" relative="1" as="geometry">
            <mxPoint x="1150" y="758" as="sourcePoint" />
            <mxPoint x="1033.0504668309204" y="668.469117117339" as="targetPoint" />
            <Array as="points" />
            <mxPoint as="offset" />
          </mxGeometry>
        </mxCell>
        <mxCell id="O8QS6B6w0gNLtdAk0vZ7-116" style="edgeStyle=orthogonalEdgeStyle;rounded=0;orthogonalLoop=1;jettySize=auto;html=1;entryX=1;entryY=0.5;entryDx=0;entryDy=0;dashed=1;startArrow=none;" edge="1" parent="1" source="O8QS6B6w0gNLtdAk0vZ7-117" target="O8QS6B6w0gNLtdAk0vZ7-38">
          <mxGeometry relative="1" as="geometry" />
        </mxCell>
        <mxCell id="O8QS6B6w0gNLtdAk0vZ7-113" value="Удаление карточки" style="ellipse;whiteSpace=wrap;html=1;" vertex="1" parent="1">
          <mxGeometry x="1191" y="450" width="140" height="70" as="geometry" />
        </mxCell>
        <mxCell id="O8QS6B6w0gNLtdAk0vZ7-117" value="&amp;lt;&amp;lt;include&amp;gt;&amp;gt;" style="text;html=1;align=center;verticalAlign=middle;resizable=0;points=[];autosize=1;strokeColor=none;fillColor=none;" vertex="1" parent="1">
          <mxGeometry x="1075" y="470" width="90" height="30" as="geometry" />
        </mxCell>
        <mxCell id="O8QS6B6w0gNLtdAk0vZ7-118" value="" style="edgeStyle=orthogonalEdgeStyle;rounded=0;orthogonalLoop=1;jettySize=auto;html=1;entryX=1;entryY=0.5;entryDx=0;entryDy=0;dashed=1;endArrow=none;" edge="1" parent="1" source="O8QS6B6w0gNLtdAk0vZ7-113" target="O8QS6B6w0gNLtdAk0vZ7-117">
          <mxGeometry relative="1" as="geometry">
            <mxPoint x="1191.0000000000005" y="485" as="sourcePoint" />
            <mxPoint x="1043" y="485" as="targetPoint" />
          </mxGeometry>
        </mxCell>
        <mxCell id="O8QS6B6w0gNLtdAk0vZ7-50" value="&amp;lt;&amp;lt;include&amp;gt;&amp;gt;" style="text;html=1;align=center;verticalAlign=middle;resizable=0;points=[];autosize=1;strokeColor=none;fillColor=none;" vertex="1" parent="1">
          <mxGeometry x="710" y="470" width="90" height="30" as="geometry" />
        </mxCell>
        <mxCell id="O8QS6B6w0gNLtdAk0vZ7-119" value="" style="edgeStyle=orthogonalEdgeStyle;rounded=0;orthogonalLoop=1;jettySize=auto;html=1;dashed=1;endArrow=none;" edge="1" parent="1" source="O8QS6B6w0gNLtdAk0vZ7-38" target="O8QS6B6w0gNLtdAk0vZ7-50">
          <mxGeometry relative="1" as="geometry">
            <mxPoint x="903" y="485.0000000000002" as="sourcePoint" />
            <mxPoint x="713" y="485.0000000000002" as="targetPoint" />
          </mxGeometry>
        </mxCell>
        <mxCell id="O8QS6B6w0gNLtdAk0vZ7-121" value="&amp;lt;&amp;lt;include&amp;gt;&amp;gt;" style="text;html=1;align=center;verticalAlign=middle;resizable=0;points=[];autosize=1;strokeColor=none;fillColor=none;spacing=0;" vertex="1" parent="1">
          <mxGeometry x="38" y="408" width="90" height="20" as="geometry" />
        </mxCell>
        <mxCell id="O8QS6B6w0gNLtdAk0vZ7-123" value="" style="edgeStyle=orthogonalEdgeStyle;rounded=0;orthogonalLoop=1;jettySize=auto;html=1;dashed=1;endArrow=none;" edge="1" parent="1" source="O8QS6B6w0gNLtdAk0vZ7-8" target="O8QS6B6w0gNLtdAk0vZ7-121">
          <mxGeometry relative="1" as="geometry">
            <mxPoint x="169.99999999999977" y="340.0000000000001" as="sourcePoint" />
            <mxPoint x="-0.9999999999997726" y="485.0000000000002" as="targetPoint" />
            <Array as="points">
              <mxPoint x="80" y="340" />
            </Array>
          </mxGeometry>
        </mxCell>
      </root>
    </mxGraphModel>
  </diagram>
</mxfile>
